<svg xmlns="http://www.w3.org/2000/svg"  viewBox="0 0 50 50" width="100px" height="100px"><path d="M 25 2 C 12.310434 2 2 12.310434 2 25 C 2 37.689566 12.310434 48 25 48 C 37.689566 48 48 37.689566 48 25 C 48 12.310434 37.689566 2 25 2 z M 25 4 C 36.608434 4 46 13.391566 46 25 C 46 36.608434 36.608434 46 25 46 C 13.391566 46 4 36.608434 4 25 C 4 13.391566 13.391566 4 25 4 z M 26.300781 12.009766 C 16.773781 12.009766 10.710937 18.939453 10.710938 18.939453 L 12.443359 22.070312 L 13.308594 22.070312 L 13.308594 20.669922 C 13.308594 20.669922 14.85625 18.643313 15.90625 17.945312 L 15.90625 36.259766 L 15.041016 36.259766 L 15.041016 37.992188 L 20.238281 37.992188 L 20.238281 36.259766 L 19.371094 36.259766 L 19.371094 31.984375 C 20.992094 32.832375 23.332781 33.662109 26.300781 33.662109 C 34.961781 33.662109 39.292969 28.539531 39.292969 23.269531 C 39.291969 18.146531 35.827781 12.009766 26.300781 12.009766 z M 26.300781 14.164062 C 32.050781 14.164062 34.962891 18.920531 34.962891 23.269531 C 34.962891 26.733531 31.939781 31.064453 26.300781 31.064453 C 22.829781 31.064453 20.524094 30.293297 19.371094 29.779297 L 19.371094 15.722656 C 21.249094 14.824656 23.557781 14.164062 26.300781 14.164062 z"/></svg>